<?xml version="1.0" standalone="no"?>
<!DOCTYPE svg PUBLIC "-//W3C//DTD SVG 20010904//EN"
 "http://www.w3.org/TR/2001/REC-SVG-20010904/DTD/svg10.dtd">
<svg version="1.0" xmlns="http://www.w3.org/2000/svg"
 width="630.000000pt" height="630.000000pt" viewBox="0 0 630.000000 630.000000"
 preserveAspectRatio="xMidYMid meet">
<metadata>
Created by potrace 1.11, written by Peter Selinger 2001-2013
</metadata>
<g transform="translate(0.000000,630.000000) scale(0.100000,-0.100000)"
fill="#000000" stroke="none">
<path d="M2950 6217 c-299 -143 -1101 -547 -1395 -702 -754 -398 -1370 -746
-1394 -787 -13 -22 -8 -58 50 -354 57 -294 67 -332 91 -359 16 -19 106 -70
247 -140 122 -60 221 -112 221 -115 0 -3 -73 -50 -162 -105 -195 -120 -218
-138 -218 -173 0 -25 342 -1793 360 -1862 14 -51 42 -73 240 -190 657 -387
1502 -947 2036 -1349 59 -45 116 -81 127 -81 17 0 147 91 397 279 41 31 80 67
86 80 7 13 15 104 19 220 4 108 10 211 14 229 l6 33 157 -116 c86 -63 164
-115 174 -115 10 0 133 76 273 169 375 246 639 412 1052 659 102 61 193 120
203 131 19 20 36 99 170 786 41 209 161 823 267 1364 175 896 191 986 178
1009 -9 16 -98 73 -249 160 -327 187 -345 196 -380 188 -17 -3 -134 -55 -261
-116 -127 -62 -233 -110 -235 -107 -3 2 7 96 21 207 30 241 30 262 8 288 -52
59 -1803 940 -1888 949 -34 3 -66 -8 -215 -80z m688 -364 c516 -257 1092 -554
1092 -564 0 -5 -243 -125 -366 -181 -17 -8 -67 15 -280 126 -545 287 -891 456
-930 456 -29 0 -130 -47 -438 -204 -638 -324 -1343 -702 -1383 -743 -15 -14
-23 -34 -23 -57 0 -66 -5 -63 430 -281 209 -105 279 -136 299 -132 14 3 125
61 246 128 121 67 366 200 545 295 l324 173 126 -66 c219 -116 639 -343 805
-435 88 -49 172 -92 186 -95 20 -4 163 63 629 297 555 277 604 300 623 287 12
-7 84 -49 160 -92 75 -42 139 -81 142 -85 2 -3 -129 -71 -292 -151 -662 -322
-1462 -744 -2136 -1126 -213 -121 -241 -134 -263 -125 -13 6 -101 56 -196 110
-306 175 -678 379 -1098 602 -96 52 -442 227 -768 391 -567 285 -592 298 -570
312 125 80 811 459 1263 697 292 155 1373 700 1388 700 5 0 223 -107 485 -237z
m-605 -814 c-5 -4 -125 -70 -268 -145 -143 -75 -370 -197 -505 -271 -134 -73
-247 -133 -250 -133 -3 0 -88 42 -189 94 l-183 93 34 21 c104 63 744 404 1138
606 l225 115 3 -186 c1 -103 -1 -190 -5 -194z m947 15 c118 -63 221 -118 229
-123 11 -7 11 -38 1 -192 -7 -101 -14 -186 -16 -188 -1 -2 -141 71 -311 162
-169 91 -375 201 -458 244 l-150 79 -3 193 -2 193 247 -127 c137 -70 345 -179
463 -241z m1930 -560 c0 -5 -496 -2735 -506 -2786 -4 -23 -40 -48 -227 -159
-266 -159 -693 -424 -909 -565 -87 -57 -158 -100 -158 -96 0 70 34 370 43 378
16 16 495 312 756 468 175 106 215 134 226 160 18 44 307 1883 300 1906 -9 29
-54 60 -86 60 -15 0 -76 -25 -136 -56 -381 -198 -525 -278 -540 -301 -16 -24
-27 -118 -107 -888 -15 -137 -29 -267 -32 -287 -5 -36 -11 -40 -202 -154 -414
-246 -772 -475 -786 -503 -14 -26 -23 -225 -43 -936 -3 -132 -9 -250 -12 -262
-4 -13 -56 -58 -131 -111 -69 -50 -126 -89 -127 -88 -2 2 13 1961 20 2606 l2
214 180 104 c258 149 684 385 1025 568 282 151 1427 733 1443 734 4 0 7 -3 7
-6z m-4407 -1441 c15 -126 41 -349 59 -497 27 -228 29 -270 17 -276 -8 -5 -70
-47 -139 -94 -70 -48 -126 -80 -127 -73 -6 32 -134 935 -136 957 -2 21 16 36
143 117 80 51 147 93 150 93 3 0 18 -102 33 -227z m552 -1144 c143 -87 325
-200 405 -251 l145 -93 8 -184 c4 -101 6 -185 4 -188 -3 -2 -83 47 -178 110
-219 143 -489 312 -782 488 l-227 138 62 44 c35 24 96 67 137 96 l74 51 46
-27 c25 -14 163 -98 306 -184z"/>
</g>
</svg>
