<?xml version="1.0" encoding="utf-8"?>
<!-- Generator: Adobe Illustrator 23.0.3, SVG Export Plug-In . SVG Version: 6.00 Build 0)  -->
<svg version="1.1" id="Layer_1" xmlns="http://www.w3.org/2000/svg" xmlns:xlink="http://www.w3.org/1999/xlink" x="0px" y="0px"
	 viewBox="0 0 600 783.63" style="enable-background:new 0 0 600 783.63;" xml:space="preserve">
<style type="text/css">
	.st0{opacity:0.35;fill:url(#SVGID_1_);}
	.st1{opacity:0.35;fill:url(#SVGID_2_);}
	.st2{fill:#9EAFD8;}
	.st3{fill:#55BE8F;}
	.st4{fill:#0F132F;}
</style>
<g>
	<linearGradient id="SVGID_1_" gradientUnits="userSpaceOnUse" x1="176.4027" y1="521.8729" x2="102.6132" y2="659.3239">
		<stop  offset="0" style="stop-color:#55BE8F"/>
		<stop  offset="1" style="stop-color:#55BE8F;stop-opacity:0"/>
	</linearGradient>
	<path class="st0" d="M299.46,149.82c-0.01,0-0.02,0-0.03,0c-1.86,0-3.69,0.45-5.31,1.29C196.5,202.31,108.59,253.52,30.4,304.72
		c-1.29,0.85-2.27,2.07-2.82,3.53c-0.55,1.46-0.66,3.13-0.33,4.82c4.03,20.49,8.05,40.97,12.08,61.46c0.68,3.43,3.04,6.64,6.16,8.35
		c13.56,7.46,26.91,14.92,40.06,22.39c-10.67,7.45-21.14,14.91-31.4,22.36c-1.16,0.84-2.04,2.06-2.52,3.54
		c-0.48,1.46-0.55,3.13-0.22,4.82C63.5,497.45,75.58,558.9,87.66,620.36c0.68,3.44,2.72,6.64,5.32,8.35
		c77.5,51.21,145.28,102.41,203.35,153.62c0.96,0.84,2.03,1.28,3.13,1.29C299.46,572.35,299.46,361.09,299.46,149.82z"/>
	<linearGradient id="SVGID_2_" gradientUnits="userSpaceOnUse" x1="431.4763" y1="538.7369" x2="502.3674" y2="667.4982">
		<stop  offset="0" style="stop-color:#55BE8F"/>
		<stop  offset="1" style="stop-color:#55BE8F;stop-opacity:0"/>
	</linearGradient>
	<path class="st1" d="M571.33,308.25c-0.55-1.46-1.53-2.68-2.82-3.53c-15.65-10.24-31.68-20.47-48.1-30.71
		c-1.35-0.84-2.98-1.29-4.69-1.29c-1.71,0-3.47,0.45-5.09,1.29c-14.22,7.46-28.24,14.93-42.04,22.39c1.8-14.93,3.6-29.86,5.41-44.8
		c0.42-3.43-1.11-6.63-3.99-8.35c-51.59-30.72-106.68-61.44-165.27-92.16c-1.6-0.84-3.43-1.28-5.28-1.28c0,211.27,0,422.54,0,633.81
		c0.01,0,0.01,0,0.02,0c1.1,0,2.18-0.45,3.14-1.29c11.62-10.23,23.62-20.47,36.01-30.7c2.07-1.72,3.47-4.92,3.62-8.35
		c0.67-14.92,1.34-29.83,2.01-44.75c8.87,7.46,17.53,14.91,25.98,22.37c0.96,0.84,2.08,1.28,3.26,1.28c1.03,0,2.07-0.34,3.04-0.99
		c39.61-30.83,82.75-61.66,129.4-92.48c2.6-1.71,4.65-4.91,5.33-8.36c20.13-102.43,40.27-204.86,60.4-307.29
		C572,311.38,571.88,309.71,571.33,308.25z"/>
	<g>
		<path class="st2" d="M299.94,314.77c86.42-50.86,182.38-101.73,287.87-152.59c-16.82-9.36-33.99-18.73-51.49-28.09
			c-41.84,18.72-82.27,37.43-121.31,56.15c-35.82-18.6-73.02-37.2-111.59-55.8c-40.39,18.6-79.33,37.2-116.84,55.8
			c-19.54-10.17-39.46-20.34-59.76-30.51c54.5-28.77,112.23-57.53,173.21-86.3c41.35,19.03,81.25,38.06,119.7,57.09
			c19.45-9.05,39.22-18.1,59.32-27.14c-56.22-30.7-115.89-61.4-179.01-92.1C194.27,61.86,98.01,112.44,11.26,163.02
			C117,213.6,213.23,264.19,299.94,314.77z"/>
	</g>
	<g>
		<path class="st3" d="M391.59,499.29c31.51-22.15,64.67-44.3,99.48-66.45c8.77-57.91,17.54-115.81,26.31-173.72
			c-19.89,8.38-39.46,16.76-58.71,25.14c-4.64,41.16-9.27,82.33-13.91,123.49c-34.29,21.15-67.01,42.31-98.17,63.46
			c-1.64,38.38-3.27,76.75-4.89,115.13c-13.33,9.98-26.31,19.97-38.94,29.95c-0.67-100.51-1.62-201.01-2.84-301.52
			c86.42-50.86,182.38-101.73,287.87-152.59c-18.25,103.01-36.72,206.02-55.41,309.04c-50.84,28.64-98.5,57.28-142.98,85.92
			C390.19,537.85,390.91,518.57,391.59,499.29z"/>
	</g>
	<path class="st4" d="M458.68,284.26c-4.7,41.16-9.39,82.33-14.08,123.49c15.82,8.36,31.31,16.72,46.47,25.08
		c8.77-57.91,17.54-115.81,26.31-173.72C497.49,267.5,477.92,275.88,458.68,284.26z"/>
	<g>
		<path class="st2" d="M154.66,407.75c-13.59,9.86-26.83,19.72-39.75,29.58c50.07,29.45,96.93,58.9,140.58,88.36
			c-0.74-19.66-1.47-39.31-2.21-58.97C221.88,447.06,189.01,427.41,154.66,407.75z"/>
	</g>
	<g>
		<path class="st3" d="M300.03,73.42c-0.01,20.34-0.01,40.67-0.02,61.01c-39.83,20.1-78.13,40.21-114.89,60.31
			c-20.55-10.86-41.53-21.71-62.94-32.57C178.04,132.59,237.32,103.01,300.03,73.42z"/>
	</g>
	<path class="st4" d="M351.3,464.61c29.76-18.95,60.86-37.91,93.3-56.86c12.52,10.11,24.71,20.22,36.59,30.33
		c-31.24,20.4-61.1,40.81-89.59,61.21C378.57,487.73,365.14,476.17,351.3,464.61z"/>
	<g>
		<path class="st2" d="M91.47,314.77c5.92,39.36,11.84,78.71,17.76,118.07c14.55-10.23,29.48-20.47,44.81-30.7
			c-4.23-37.69-8.46-75.38-12.69-113.07C124.39,297.64,107.77,306.2,91.47,314.77z"/>
	</g>
	<g>
		<path class="st3" d="M300.03,73.42c-0.01,20.34-0.01,40.67-0.02,61.01c38.69,18.6,75.99,37.2,111.92,55.8
			c1.46-19.53,2.91-39.05,4.37-58.58C378.98,112.25,340.23,92.83,300.03,73.42z"/>
	</g>
	<g>
		<path class="st4" d="M419.73,130.52c19.45-9.05,39.22-18.1,59.32-27.14c-2.31,20.47-4.61,40.93-6.92,61.4
			c-0.33,0-57.33,30.89-57.33,29.95C414.47,193.79,419.73,130.52,419.73,130.52z"/>
	</g>
	<path class="st4" d="M33.73,282.71c19.64,10.69,38.89,21.38,57.73,32.06c14.58-10.17,29.52-20.34,44.81-30.51
		c-19.17-10.25-38.73-20.5-58.68-30.75C62.64,263.24,48.02,272.97,33.73,282.71z"/>
	<path class="st4" d="M346.61,471.21c-0.78,20.31-1.56,40.62-2.34,60.93c13.37,8.33,26.45,16.66,39.23,24.99
		c2.1-21.25,4.23-42.49,6.38-63.74C375.72,486,361.3,478.61,346.61,471.21z"/>
	<g>
		<path class="st4" d="M11.87,166.27c105.34,49.5,201.36,99,288.07,148.5c-0.2,100.51-0.36,201.01-0.48,301.52
			c-67.7-49.86-144.75-99.71-231.17-149.57C57.17,407.5,46.05,348.29,34.93,289.07c17.17,7.99,34.07,15.97,50.7,23.96
			c1.64,2.25,3.27,4.49,4.9,6.74c5.94,39.19,11.88,78.37,17.82,117.56c52.41,29.45,101.46,58.9,147.14,88.36
			c-0.74-19.66-1.47-39.31-2.21-58.97c-32.76-20.67-67.13-41.34-103.11-62c-4.64-40.15-9.27-80.3-13.91-120.46
			c-36.35-19.61-74.11-39.22-113.3-58.83C19.28,205.71,15.57,185.99,11.87,166.27z"/>
	</g>
	<g>
		<path class="st4" d="M599.36,157.37c-0.64-1.45-1.74-2.66-3.18-3.51c-17.44-10.17-35.27-20.33-53.48-30.5
			c-1.5-0.83-3.29-1.28-5.17-1.28c-1.88,0-3.81,0.44-5.57,1.28c-15.5,7.41-30.79,14.83-45.89,22.24
			c1.78-14.83,3.57-29.66,5.35-44.49c0.41-3.41-1.3-6.58-4.48-8.3C430.01,62.3,369.63,31.79,305.8,1.28
			C304.05,0.44,302.05,0,300.03,0C298,0,296,0.44,294.24,1.28C187.85,52.14,91.04,103,3.82,153.87c-1.44,0.84-2.55,2.05-3.18,3.51
			c-0.64,1.45-0.8,3.11-0.47,4.79c3.97,20.35,7.93,40.69,11.9,61.04c0.67,3.41,3.21,6.59,6.62,8.3
			c14.84,7.41,29.48,14.82,43.91,22.24c-12,7.4-23.79,14.81-35.39,22.21c-1.32,0.84-2.32,2.05-2.89,3.51
			c-0.57,1.45-0.69,3.11-0.36,4.79c11.9,61.04,23.79,122.08,35.69,183.13c0.67,3.42,2.9,6.6,5.79,8.3
			c86.51,50.86,163.43,101.72,230.76,152.59c1.11,0.84,2.37,1.28,3.65,1.28c1.28,0,2.54-0.44,3.65-1.28
			c13.48-10.17,27.34-20.33,41.58-30.5c2.38-1.71,3.97-4.88,4.12-8.29c0.67-14.82,1.33-29.63,1.99-44.45
			c10.21,7.41,20.22,14.81,30.02,22.22c1.11,0.83,2.41,1.28,3.76,1.28c1.18,0,2.37-0.34,3.48-0.98
			c45.15-30.62,93.77-61.24,145.87-91.86c2.9-1.7,5.13-4.88,5.8-8.3c19.9-101.74,39.8-203.48,59.7-305.22
			C600.16,160.48,600,158.82,599.36,157.37z M352.2,522.9c0.58-12.97,1.16-25.94,1.75-38.92c9.43,6.48,18.7,12.96,27.81,19.44
			c-0.89,12.97-1.79,25.95-2.68,38.92C370.27,535.86,361.31,529.38,352.2,522.9z M127.05,436.84c9.21-6.48,18.58-12.96,28.1-19.44
			c31.35,18.51,61.42,37.01,90.23,55.52c0.57,12.97,1.15,25.94,1.72,38.91C209.4,486.83,169.38,461.83,127.05,436.84z
			 M116.06,420.25c-4.78-33.31-9.56-66.62-14.34-99.92c10.1-6.49,20.36-12.99,30.78-19.48c3.98,33.32,7.96,66.64,11.95,99.96
			C134.82,407.28,125.36,413.77,116.06,420.25z M89.78,303.71c-12.13-6.49-24.42-12.97-36.87-19.46
			c10.19-6.48,20.54-12.97,31.04-19.45c12.45,6.48,24.74,12.96,36.88,19.44C110.33,290.73,99.98,297.22,89.78,303.71z M75.45,461.84
			c-9.73-53.67-19.45-107.34-29.18-161.01c12.37,6.49,24.58,12.99,36.64,19.48c6.11,38.84,12.21,77.67,18.32,116.51
			c0.54,3.41,2.68,6.59,5.58,8.29c51.91,30.53,100.36,61.07,145.37,91.6c1.24,0.83,2.62,1.28,4.01,1.28c1.39,0,2.74-0.44,3.92-1.28
			c2.38-1.71,3.81-4.88,3.71-8.29c-0.62-20.35-1.24-40.7-1.86-61.05c-0.1-3.4-1.81-6.58-4.48-8.29
			c-30.37-19.43-62.14-38.85-95.31-58.28c-4.11-38.85-8.23-77.71-12.34-116.56c-0.05-0.34-0.1-0.68-0.16-1.03
			c-0.05-0.1-0.11-0.21-0.16-0.31c-0.19-0.74-0.47-1.47-0.85-2.2c-0.05-0.18-0.11-0.36-0.16-0.54c-0.38-0.52-0.76-1.03-1.13-1.55
			c-0.09-0.07-0.19-0.14-0.28-0.21c-0.59-0.66-1.24-1.24-1.91-1.7c-0.1-0.11-0.21-0.22-0.31-0.33
			c-36.47-19.56-74.36-39.13-113.66-58.69c-2.35-12.98-4.7-25.95-7.05-38.93C121.2,225.94,210,273.13,290.57,320.32
			c0.61,94.35,1.22,188.71,1.83,283.06C228.32,556.2,156.01,509.02,75.45,461.84z M141.73,217.15
			C141.73,217.14,141.74,217.14,141.73,217.15c-35.46-18.33-72.17-36.66-110.12-54.98c81.22-47.18,170.69-94.35,268.4-141.53
			c55.57,26.83,108.47,53.66,158.7,80.49c-13.44,6.49-26.72,12.99-39.85,19.48c-36.38-19.43-74.16-38.87-113.33-58.3
			c-0.34-0.15-0.68-0.29-1.02-0.44c-0.12-0.02-0.24-0.03-0.36-0.05c-0.88-0.3-1.77-0.51-2.63-0.6c-0.18-0.06-0.37-0.11-0.55-0.17
			c-0.7,0.01-1.41,0.02-2.11,0.03c-0.09,0.03-0.18,0.06-0.28,0.09c-1.51,0.15-2.9,0.53-4.17,1.16
			c-61.53,30.52-119.61,61.03-174.24,91.55c-1.34,0.74-2.38,1.79-3.2,3.2c-0.14,0.3-0.27,0.6-0.41,0.91
			c-0.39,0.92-0.6,1.89-0.63,2.89c-0.04,0.14-0.09,0.29-0.13,0.43c0.08,0.62,0.17,1.23,0.25,1.85c0.04,0.07,0.08,0.13,0.12,0.2
			c0.32,1.34,0.88,2.53,1.68,3.6c1.13,1.52,2.69,2.77,4.37,3.56c20.33,10.16,40.27,20.33,59.83,30.49c1.62,0.84,3.42,1.29,5.22,1.29
			c1.8,0,3.53-0.45,5.01-1.28c34.5-19.43,70.39-38.85,107.68-58.28c37.33,19.44,73.26,38.89,107.79,58.33
			c0.29,0.14,0.58,0.27,0.86,0.41c0.09,0.01,0.17,0.03,0.26,0.04c0.86,0.35,1.74,0.58,2.58,0.67c0.08,0.04,0.17,0.07,0.25,0.11
			c0.34,0,0.67,0,1.01,0c1.79,0,3.59-0.44,5.21-1.28c37.42-19.43,76.24-38.86,116.46-58.28c11.48,6.48,22.8,12.97,33.96,19.45
			c-97.72,47.19-187.2,94.37-268.43,141.56C250.29,274.86,197.56,246,141.73,217.15z M425.06,176.14
			c1.07-12.98,2.14-25.96,3.21-38.95c13.04-6.49,26.23-12.99,39.58-19.48c-1.38,12.98-2.77,25.95-4.15,38.93
			C450.66,163.14,437.78,169.64,425.06,176.14z M406.96,137.19c-0.89,12.98-1.79,25.95-2.68,38.93
			c-30.16-16.66-61.35-33.32-93.56-49.98c0.09-12.98,0.19-25.95,0.28-38.93C344.01,103.86,376,120.53,406.96,137.19z M289,87.22
			c0.08,12.97,0.17,25.95,0.25,38.92c-35.77,18.5-70.28,37.01-103.51,55.51c-12.64-6.5-25.43-12.99-38.37-19.49
			C192.27,137.18,239.48,112.2,289,87.22z M341.95,459.42c-0.58,0.43-1.01,0.89-1.4,1.31c-0.27,0.31-0.69,0.76-0.6,0.76
			c0,0,0,0,0.01,0c-0.18,0.2-0.36,0.39-0.55,0.59c-0.24,0.5-0.48,1.01-0.72,1.51c-0.02,0.11-0.03,0.22-0.05,0.34
			c-0.26,0.68-0.44,1.39-0.56,2.1c-0.06,0.18-0.12,0.36-0.18,0.54c-1.22,39.12-2.43,78.25-3.65,117.37
			c-9.13,6.48-18.1,12.97-26.91,19.45c0.68-94.35,1.36-188.71,2.04-283.06c55.46-32.47,114.82-64.95,178.09-97.42
			c13.93-7.18,28.05-14.36,42.36-21.54c0.43-0.13,0.85-0.26,1.28-0.39c0.13-0.12,0.26-0.24,0.39-0.36
			c14.59-7.29,29.37-14.57,44.35-21.86c-17.17,94.36-34.34,188.73-51.51,283.09c-45.82,26.83-88.98,53.65-129.47,80.48
			c1.07-12.97,2.14-25.94,3.21-38.91c30.24-19.41,61.87-38.82,94.91-58.24c1.43-0.84,2.71-2.06,3.53-3.29
			c0.13-0.17,0.26-0.35,0.39-0.52c0.03-0.07,0.06-0.14,0.09-0.21c0.56-0.94,0.99-1.97,1.29-3.12c0.06-0.12,0.12-0.24,0.18-0.36
			c9.68-61.31,19.37-122.62,29.05-183.94c0.54-3.42-0.85-6.59-3.64-8.29c-1.37-0.84-3.02-1.29-4.77-1.29
			c-1.75,0-3.54,0.45-5.18,1.29c-19.73,10.16-39.08,20.32-58.05,30.48c-0.35,0.22-0.7,0.43-1.06,0.65
			c-0.11,0.12-0.23,0.24-0.34,0.37c-0.68,0.51-1.29,1.09-1.91,1.81c-0.24,0.3-0.48,0.6-0.72,0.89c-0.07,0.12-0.14,0.23-0.22,0.35
			c-0.56,0.91-0.97,1.89-1.22,2.93c-0.08,0.16-0.15,0.31-0.23,0.47c-4.17,39.14-8.34,78.27-12.51,117.41
			C404.36,420.34,372.45,439.88,341.95,459.42z M505.38,270.34c-7.21,49.97-14.42,99.94-21.63,149.91
			c-9.29-6.48-18.74-12.97-28.34-19.45c4.45-37.01,8.9-74.01,13.35-111.02C480.82,283.3,493.02,276.82,505.38,270.34z
			 M444.67,417.39c9.52,6.49,18.89,12.97,28.09,19.46c-28.23,16.66-55.43,33.32-81.61,49.98c-9.21-6.49-18.57-12.97-28.08-19.46
			C389.25,450.72,416.45,434.06,444.67,417.39z"/>
	</g>
</g>
</svg>
